<?xml version="1.0" encoding="UTF-8"?>
<svg width="15px" height="15px" viewBox="0 0 15 15" version="1.1" xmlns="http://www.w3.org/2000/svg" xmlns:xlink="http://www.w3.org/1999/xlink">
    <!-- Generator: Sketch 42 (36781) - http://www.bohemiancoding.com/sketch -->
    <title></title>
    <desc>Created with Sketch.</desc>
    <defs></defs>
    <g id="Page-1" stroke="none" stroke-width="1" fill="none" fill-rule="evenodd">
        <g id="Start-styled-0.3" transform="translate(-171.000000, -347.000000)" fill="#FFFFFF">
            <g id="Sidebar" transform="translate(39.000000, 79.000000)">
                <g id="Search" transform="translate(1.000000, 261.000000)">
                    <path d="M145.142857,13.9642857 L145.142857,15.8928571 C145.142857,16.1607156 145.049108,16.3883919 144.861607,16.5758929 C144.674106,16.7633938 144.44643,16.8571429 144.178571,16.8571429 L140,16.8571429 L140,21.0357143 C140,21.3035728 139.906251,21.5312491 139.71875,21.71875 C139.531249,21.9062509 139.303573,22 139.035714,22 L137.107143,22 C136.839284,22 136.611608,21.9062509 136.424107,21.71875 C136.236606,21.5312491 136.142857,21.3035728 136.142857,21.0357143 L136.142857,16.8571429 L131.964286,16.8571429 C131.696427,16.8571429 131.468751,16.7633938 131.28125,16.5758929 C131.093749,16.3883919 131,16.1607156 131,15.8928571 L131,13.9642857 C131,13.6964272 131.093749,13.4687509 131.28125,13.28125 C131.468751,13.0937491 131.696427,13 131.964286,13 L136.142857,13 L136.142857,8.82142857 C136.142857,8.55357009 136.236606,8.32589379 136.424107,8.13839286 C136.611608,7.95089192 136.839284,7.85714286 137.107143,7.85714286 L139.035714,7.85714286 C139.303573,7.85714286 139.531249,7.95089192 139.71875,8.13839286 C139.906251,8.32589379 140,8.55357009 140,8.82142857 L140,13 L144.178571,13 C144.44643,13 144.674106,13.0937491 144.861607,13.28125 C145.049108,13.4687509 145.142857,13.6964272 145.142857,13.9642857 Z" id=""></path>
                </g>
            </g>
        </g>
    </g>
</svg>