<?xml version="1.0" encoding="UTF-8"?>
<svg width="16px" height="17px" viewBox="0 0 16 17" version="1.1" xmlns="http://www.w3.org/2000/svg" xmlns:xlink="http://www.w3.org/1999/xlink">
    <!-- Generator: Sketch 43.2 (39069) - http://www.bohemiancoding.com/sketch -->
    <title>arrow-icon</title>
    <desc>Created with Sketch.</desc>
    <defs></defs>
    <g id="Symbols" stroke="none" stroke-width="1" fill="none" fill-rule="evenodd">
        <path d="M10.9285714,8.57142857 C10.9285714,8.79241182 10.8381705,8.96651722 10.6573661,9.09375 L6.15736607,12.3080357 C5.94977575,12.4620543 5.72879581,12.4787952 5.49441964,12.3582589 C5.26004347,12.2444191 5.14285714,12.0535728 5.14285714,11.7857143 L5.14285714,5.35714286 C5.14285714,5.08928437 5.26004347,4.89843807 5.49441964,4.78459821 C5.72879581,4.6640619 5.94977575,4.6808028 6.15736607,4.83482143 L10.6573661,8.04910714 C10.8381705,8.17633992 10.9285714,8.35044532 10.9285714,8.57142857 Z M12.8571429,13.3928571 L12.8571429,3.75 C12.8571429,3.65624953 12.8270092,3.57924137 12.7667411,3.51897321 C12.7064729,3.45870506 12.6294648,3.42857143 12.5357143,3.42857143 L2.89285714,3.42857143 C2.79910667,3.42857143 2.72209852,3.45870506 2.66183036,3.51897321 C2.6015622,3.57924137 2.57142857,3.65624953 2.57142857,3.75 L2.57142857,13.3928571 C2.57142857,13.4866076 2.6015622,13.5636158 2.66183036,13.6238839 C2.72209852,13.6841521 2.79910667,13.7142857 2.89285714,13.7142857 L12.5357143,13.7142857 C12.6294648,13.7142857 12.7064729,13.6841521 12.7667411,13.6238839 C12.8270092,13.5636158 12.8571429,13.4866076 12.8571429,13.3928571 Z M15.4285714,3.75 L15.4285714,13.3928571 C15.4285714,14.1897361 15.1456502,14.8710909 14.5797991,15.436942 C14.0139481,16.002793 13.3325933,16.2857143 12.5357143,16.2857143 L2.89285714,16.2857143 C2.09597816,16.2857143 1.41462336,16.002793 0.848772321,15.436942 C0.282921278,14.8710909 0,14.1897361 0,13.3928571 L0,3.75 C0,2.95312102 0.282921278,2.27176622 0.848772321,1.70591518 C1.41462336,1.14006414 2.09597816,0.857142857 2.89285714,0.857142857 L12.5357143,0.857142857 C13.3325933,0.857142857 14.0139481,1.14006414 14.5797991,1.70591518 C15.1456502,2.27176622 15.4285714,2.95312102 15.4285714,3.75 Z" id="arrow-icon" fill="#122E51"></path>
    </g>
</svg>