<?xml version="1.0" encoding="UTF-8"?>
<svg width="12px" height="13px" viewBox="0 0 12 13" version="1.1" xmlns="http://www.w3.org/2000/svg" xmlns:xlink="http://www.w3.org/1999/xlink">
    <!-- Generator: Sketch 42 (36781) - http://www.bohemiancoding.com/sketch -->
    <title></title>
    <desc>Created with Sketch.</desc>
    <defs></defs>
    <g id="Page-1" stroke="none" stroke-width="1" fill="none" fill-rule="evenodd">
        <g id="Start-styled-0.3" transform="translate(-172.000000, -269.000000)" fill="#FFFFFF">
            <g id="Sidebar" transform="translate(39.000000, 79.000000)">
                <g id="Remove-btns" transform="translate(119.000000, 182.000000)">
                    <g id="Remove-btn-Copy">
                        <path d="M26.0379464,17.8504464 C26.0379464,18.1183049 25.9441974,18.3459812 25.7566964,18.5334821 L24.390625,19.8995536 C24.2031241,20.0870545 23.9754478,20.1808036 23.7075893,20.1808036 C23.4397308,20.1808036 23.2120545,20.0870545 23.0245536,19.8995536 L20.0714286,16.9464286 L17.1183036,19.8995536 C16.9308026,20.0870545 16.7031263,20.1808036 16.4352679,20.1808036 C16.1674094,20.1808036 15.9397331,20.0870545 15.7522321,19.8995536 L14.3861607,18.5334821 C14.1986598,18.3459812 14.1049107,18.1183049 14.1049107,17.8504464 C14.1049107,17.5825879 14.1986598,17.3549117 14.3861607,17.1674107 L17.3392857,14.2142857 L14.3861607,11.2611607 C14.1986598,11.0736598 14.1049107,10.8459835 14.1049107,10.578125 C14.1049107,10.3102665 14.1986598,10.0825902 14.3861607,9.89508929 L15.7522321,8.52901786 C15.9397331,8.34151692 16.1674094,8.24776786 16.4352679,8.24776786 C16.7031263,8.24776786 16.9308026,8.34151692 17.1183036,8.52901786 L20.0714286,11.4821429 L23.0245536,8.52901786 C23.2120545,8.34151692 23.4397308,8.24776786 23.7075893,8.24776786 C23.9754478,8.24776786 24.2031241,8.34151692 24.390625,8.52901786 L25.7566964,9.89508929 C25.9441974,10.0825902 26.0379464,10.3102665 26.0379464,10.578125 C26.0379464,10.8459835 25.9441974,11.0736598 25.7566964,11.2611607 L22.8035714,14.2142857 L25.7566964,17.1674107 C25.9441974,17.3549117 26.0379464,17.5825879 26.0379464,17.8504464 Z" id=""></path>
                    </g>
                </g>
            </g>
        </g>
    </g>
</svg>