<?xml version="1.0" encoding="UTF-8"?>
<svg width="16px" height="15px" viewBox="0 0 16 15" version="1.1" xmlns="http://www.w3.org/2000/svg" xmlns:xlink="http://www.w3.org/1999/xlink">
    <!-- Generator: Sketch 43.2 (39069) - http://www.bohemiancoding.com/sketch -->
    <title>filter-icon</title>
    <desc>Created with Sketch.</desc>
    <defs></defs>
    <g id="Symbols" stroke="none" stroke-width="1" fill="none" fill-rule="evenodd">
        <path d="M3.53571429,11.7142857 L3.53571429,13 L0,13 L0,11.7142857 L3.53571429,11.7142857 Z M7.07142857,10.4285714 C7.24553658,10.4285714 7.39620472,10.4921869 7.5234375,10.6194196 C7.65067028,10.7466524 7.71428571,10.8973206 7.71428571,11.0714286 L7.71428571,13.6428571 C7.71428571,13.8169652 7.65067028,13.9676333 7.5234375,14.0948661 C7.39620472,14.2220989 7.24553658,14.2857143 7.07142857,14.2857143 L4.5,14.2857143 C4.32589199,14.2857143 4.17522385,14.2220989 4.04799107,14.0948661 C3.92075829,13.9676333 3.85714286,13.8169652 3.85714286,13.6428571 L3.85714286,11.0714286 C3.85714286,10.8973206 3.92075829,10.7466524 4.04799107,10.6194196 C4.17522385,10.4921869 4.32589199,10.4285714 4.5,10.4285714 L7.07142857,10.4285714 Z M8.67857143,6.57142857 L8.67857143,7.85714286 L0,7.85714286 L0,6.57142857 L8.67857143,6.57142857 Z M2.25,1.42857143 L2.25,2.71428571 L0,2.71428571 L0,1.42857143 L2.25,1.42857143 Z M15.4285714,11.7142857 L15.4285714,13 L8.03571429,13 L8.03571429,11.7142857 L15.4285714,11.7142857 Z M5.78571429,0.142857143 C5.9598223,0.142857143 6.11049044,0.206472578 6.23772321,0.333705357 C6.36495599,0.460938136 6.42857143,0.611606272 6.42857143,0.785714286 L6.42857143,3.35714286 C6.42857143,3.53125087 6.36495599,3.68191901 6.23772321,3.80915179 C6.11049044,3.93638456 5.9598223,4 5.78571429,4 L3.21428571,4 C3.0401777,4 2.88950956,3.93638456 2.76227679,3.80915179 C2.63504401,3.68191901 2.57142857,3.53125087 2.57142857,3.35714286 L2.57142857,0.785714286 C2.57142857,0.611606272 2.63504401,0.460938136 2.76227679,0.333705357 C2.88950956,0.206472578 3.0401777,0.142857143 3.21428571,0.142857143 L5.78571429,0.142857143 Z M12.2142857,5.28571429 C12.3883937,5.28571429 12.5390619,5.34932972 12.6662946,5.4765625 C12.7935274,5.60379528 12.8571429,5.75446342 12.8571429,5.92857143 L12.8571429,8.5 C12.8571429,8.67410801 12.7935274,8.82477615 12.6662946,8.95200893 C12.5390619,9.07924171 12.3883937,9.14285714 12.2142857,9.14285714 L9.64285714,9.14285714 C9.46874913,9.14285714 9.31808099,9.07924171 9.19084821,8.95200893 C9.06361544,8.82477615 9,8.67410801 9,8.5 L9,5.92857143 C9,5.75446342 9.06361544,5.60379528 9.19084821,5.4765625 C9.31808099,5.34932972 9.46874913,5.28571429 9.64285714,5.28571429 L12.2142857,5.28571429 Z M15.4285714,6.57142857 L15.4285714,7.85714286 L13.1785714,7.85714286 L13.1785714,6.57142857 L15.4285714,6.57142857 Z M15.4285714,1.42857143 L15.4285714,2.71428571 L6.75,2.71428571 L6.75,1.42857143 L15.4285714,1.42857143 Z" id="filter-icon" fill="#122E51"></path>
    </g>
</svg>