<?xml version="1.0" encoding="UTF-8"?>
<svg width="13px" height="13px" viewBox="0 0 13 13" version="1.1" xmlns="http://www.w3.org/2000/svg" xmlns:xlink="http://www.w3.org/1999/xlink">
    <!-- Generator: Sketch 43.2 (39069) - http://www.bohemiancoding.com/sketch -->
    <title>search-svg</title>
    <desc>Created with Sketch.</desc>
    <defs></defs>
    <g id="Symbols" stroke="none" stroke-width="1" fill="none" fill-rule="evenodd">
        <path d="M9,5.5 C9,4.53645352 8.65755551,3.71224301 7.97265625,3.02734375 C7.28775699,2.34244449 6.46354648,2 5.5,2 C4.53645352,2 3.71224301,2.34244449 3.02734375,3.02734375 C2.34244449,3.71224301 2,4.53645352 2,5.5 C2,6.46354648 2.34244449,7.28775699 3.02734375,7.97265625 C3.71224301,8.65755551 4.53645352,9 5.5,9 C6.46354648,9 7.28775699,8.65755551 7.97265625,7.97265625 C8.65755551,7.28775699 9,6.46354648 9,5.5 Z M13,12 C13,12.2708347 12.9010427,12.5052073 12.703125,12.703125 C12.5052073,12.9010427 12.2708347,13 12,13 C11.7187486,13 11.4843759,12.9010427 11.296875,12.703125 L8.6171875,10.03125 C7.68489117,10.6770866 6.64583906,11 5.5,11 C4.75520461,11 4.04297215,10.8554702 3.36328125,10.5664062 C2.68359035,10.2773423 2.09765871,9.88672121 1.60546875,9.39453125 C1.11327879,8.90234129 0.722657695,8.31640965 0.43359375,7.63671875 C0.144529805,6.95702785 0,6.24479539 0,5.5 C0,4.75520461 0.144529805,4.04297215 0.43359375,3.36328125 C0.722657695,2.68359035 1.11327879,2.09765871 1.60546875,1.60546875 C2.09765871,1.11327879 2.68359035,0.722657695 3.36328125,0.43359375 C4.04297215,0.144529805 4.75520461,0 5.5,0 C6.24479539,0 6.95702785,0.144529805 7.63671875,0.43359375 C8.31640965,0.722657695 8.90234129,1.11327879 9.39453125,1.60546875 C9.88672121,2.09765871 10.2773423,2.68359035 10.5664062,3.36328125 C10.8554702,4.04297215 11,4.75520461 11,5.5 C11,6.64583906 10.6770866,7.68489117 10.03125,8.6171875 L12.7109375,11.296875 C12.9036468,11.4895843 13,11.723957 13,12 Z" id="search-svg" fill="#5B616A"></path>
    </g>
</svg>