<?xml version="1.0" encoding="UTF-8"?>
<svg width="12px" height="12px" viewBox="0 0 12 12" version="1.1" xmlns="http://www.w3.org/2000/svg" xmlns:xlink="http://www.w3.org/1999/xlink">
    <!-- Generator: Sketch 43.2 (39069) - http://www.bohemiancoding.com/sketch -->
    <title>view-all</title>
    <desc>Created with Sketch.</desc>
    <defs></defs>
    <g id="Symbols" stroke="none" stroke-width="1" fill="none" fill-rule="evenodd">
        <g id="Components/Card/🖥-Policy-listing" transform="translate(-668.000000, -117.000000)" fill="#0071BB">
            <g id="Policy">
                <g id="Policy-footer" transform="translate(21.000000, 66.000000)">
                    <path d="M656,57 C656,57.072917 655.976563,57.1328123 655.929688,57.1796875 L653.429688,59.6796875 C653.382812,59.7265627 653.322917,59.75 653.25,59.75 C653.182291,59.75 653.123698,59.7252607 653.074219,59.6757812 C653.024739,59.6263018 653,59.5677087 653,59.5 L653,58 L650.25,58 C650.182291,58 650.123698,57.9752607 650.074219,57.9257812 C650.024739,57.8763018 650,57.8177087 650,57.75 L650,56.25 C650,56.1822913 650.024739,56.1236982 650.074219,56.0742188 C650.123698,56.0247393 650.182291,56 650.25,56 L653,56 L653,54.5 C653,54.427083 653.023437,54.3671877 653.070312,54.3203125 C653.117188,54.2734373 653.177083,54.25 653.25,54.25 C653.3125,54.25 653.375,54.2760414 653.4375,54.328125 L655.929688,56.8203125 C655.976563,56.8671877 656,56.927083 656,57 Z M657.25,57 C657.25,56.2291628 657.059898,55.5182324 656.679688,54.8671875 C656.299477,54.2161426 655.783857,53.7005227 655.132812,53.3203125 C654.481768,52.9401023 653.770837,52.75 653,52.75 C652.229163,52.75 651.518232,52.9401023 650.867188,53.3203125 C650.216143,53.7005227 649.700523,54.2161426 649.320312,54.8671875 C648.940102,55.5182324 648.75,56.2291628 648.75,57 C648.75,57.7708372 648.940102,58.4817676 649.320312,59.1328125 C649.700523,59.7838574 650.216143,60.2994773 650.867188,60.6796875 C651.518232,61.0598977 652.229163,61.25 653,61.25 C653.770837,61.25 654.481768,61.0598977 655.132812,60.6796875 C655.783857,60.2994773 656.299477,59.7838574 656.679688,59.1328125 C657.059898,58.4817676 657.25,57.7708372 657.25,57 Z M659,57 C659,58.0885471 658.731774,59.0924433 658.195312,60.0117188 C657.658851,60.9309942 656.930994,61.6588515 656.011719,62.1953125 C655.092443,62.7317735 654.088547,63 653,63 C651.911453,63 650.907557,62.7317735 649.988281,62.1953125 C649.069006,61.6588515 648.341149,60.9309942 647.804688,60.0117188 C647.268226,59.0924433 647,58.0885471 647,57 C647,55.9114529 647.268226,54.9075567 647.804688,53.9882812 C648.341149,53.0690058 649.069006,52.3411485 649.988281,51.8046875 C650.907557,51.2682265 651.911453,51 653,51 C654.088547,51 655.092443,51.2682265 656.011719,51.8046875 C656.930994,52.3411485 657.658851,53.0690058 658.195312,53.9882812 C658.731774,54.9075567 659,55.9114529 659,57 Z" id="view-all"></path>
                </g>
            </g>
        </g>
    </g>
</svg>