<?xml version="1.0" encoding="UTF-8"?>
<svg width="14px" height="12px" viewBox="0 0 14 12" version="1.1" xmlns="http://www.w3.org/2000/svg" xmlns:xlink="http://www.w3.org/1999/xlink">
    <!-- Generator: Sketch 47.1 (45422) - http://www.bohemiancoding.com/sketch -->
    <title></title>
    <desc>Created with Sketch.</desc>
    <defs></defs>
    <g id="Pages" stroke="none" stroke-width="1" fill="none" fill-rule="evenodd">
        <g id="Full-policy-page" transform="translate(-296.000000, -288.000000)" fill="#1168A6">
            <g id="Group" transform="translate(206.000000, 284.000000)">
                <path d="M101.04454,11.0773865 L101.04454,13.5178646 C101.04454,14.7304772 100.051684,15.7142949 98.8279324,15.7142949 L92.4243997,15.7142949 C91.2006476,15.7142949 90.2077922,14.7304772 90.2077922,13.5178646 L90.2077922,7.17262154 C90.2077922,5.96000898 91.2006476,4.97619124 92.4243997,4.97619124 L97.8427735,4.97619124 C97.9813114,4.97619124 98.0890632,5.08296216 98.0890632,5.22023905 L98.0890632,5.70833467 C98.0890632,5.84561157 97.9813114,5.95238249 97.8427735,5.95238249 L92.4243997,5.95238249 C91.7471029,5.95238249 91.1929511,6.50149006 91.1929511,7.17262154 L91.1929511,13.5178646 C91.1929511,14.1889961 91.7471029,14.7381037 92.4243997,14.7381037 L98.8279324,14.7381037 C99.5052291,14.7381037 100.059381,14.1889961 100.059381,13.5178646 L100.059381,11.0773865 C100.059381,10.9401096 100.167133,10.8333387 100.305671,10.8333387 L100.79825,10.8333387 C100.936788,10.8333387 101.04454,10.9401096 101.04454,11.0773865 Z M104.000016,4.48809562 L104.000016,8.39286059 C104.000016,8.65978788 103.776816,8.88095621 103.507437,8.88095621 C103.376596,8.88095621 103.253451,8.82757075 103.161092,8.73605283 L101.806499,7.39378987 L96.7883456,12.366264 C96.7421663,12.412023 96.6728973,12.4425289 96.6113249,12.4425289 C96.5497525,12.4425289 96.4804835,12.412023 96.4343042,12.366264 L95.556897,11.4968437 C95.5107177,11.4510847 95.4799315,11.3824463 95.4799315,11.3214343 C95.4799315,11.2604224 95.5107177,11.1917839 95.556897,11.146025 L100.57505,6.17355081 L99.2204566,4.83128785 C99.1280979,4.73976993 99.0742221,4.61774602 99.0742221,4.48809562 C99.0742221,4.22116833 99.2974221,4 99.5668015,4 L103.507437,4 C103.776816,4 104.000016,4.22116833 104.000016,4.48809562 Z" id=""></path>
            </g>
        </g>
    </g>
</svg>